<svg width="64" height="64" viewBox="0 0 64 64" fill="none" xmlns="http://www.w3.org/2000/svg"><rect width="64" height="64" rx="32" fill="#28557b"/><g stroke-linecap="round" stroke-linejoin="round"/><path d="M31.885 16c-8.124 0-7.617 3.523-7.617 3.523l.01 3.65h7.752v1.095H21.197S16 23.678 16 31.876c0 8.196 4.537 7.906 4.537 7.906h2.708v-3.804s-.146-4.537 4.465-4.537h7.688s4.32.07 4.32-4.175v-7.019S40.374 16 31.885 16m-4.275 2.454a1.394 1.394 0 1 1 0 2.79 1.393 1.393 0 0 1-1.395-1.395c0-.771.624-1.395 1.395-1.395" fill="#3872a3"/><path d="M32.115 47.833c8.124 0 7.617-3.523 7.617-3.523l-.01-3.65H31.97v-1.095h10.832S48 40.155 48 31.958s-4.537-7.906-4.537-7.906h-2.708v3.803s.146 4.537-4.465 4.537h-7.688s-4.32-.07-4.32 4.175v7.019s-.656 4.247 7.833 4.247m4.275-2.454a1.393 1.393 0 0 1-1.395-1.395 1.394 1.394 0 1 1 1.395 1.395" fill="#fdd84b"/></svg>